<svg xmlns="http://www.w3.org/2000/svg" version="1.1" xmlns:xlink="http://www.w3.org/1999/xlink" xmlns:svgjs="http://svgjs.dev/svgjs" width="256" height="256"><svg width="256" height="256" viewBox="0 0 256 256" fill="none" xmlns="http://www.w3.org/2000/svg">
<g clip-path="url(#clip0_73_2)">
<path d="M245.734 100.572C240.057 100.572 235.468 100.572 235.468 100.572H215.153L215.02 112.055C221.158 115.173 225.203 121.097 225.203 128L225.634 191.433H30.7963V128C30.7963 121.253 34.9436 115.419 41.0618 112.247V100.572H20.531C20.531 100.572 15.9319 100.572 10.2655 100.572C4.58864 100.572 0 96.4749 0 91.4287V82.2855C0 77.2294 4.58864 73.1424 10.2655 73.1424C15.9319 73.1424 20.531 73.1424 20.531 73.1424V91.4287H41.0618V63.9999C41.0618 53.9061 50.2596 45.7142 61.5927 45.7142H195.044C206.377 45.7142 215.574 53.9061 215.574 63.9999L215.256 91.4287H235.468V73.1424C235.468 73.1424 240.057 73.1424 245.734 73.1424C251.4 73.1424 256 77.2294 256 82.2855V91.4287C256 96.4749 251.4 100.572 245.734 100.572ZM92.389 182.856H164.247V173.714H92.389V182.856ZM92.389 164.571H164.247V155.428H92.389V164.571ZM92.389 146.285H164.247V137.143H92.389V146.285ZM51.3272 173.714C51.3272 178.761 55.916 182.856 61.5927 182.856H71.8575C77.5247 182.856 82.1232 178.761 82.1232 173.714C82.1232 168.658 77.5247 164.571 71.8575 164.571H61.5927C55.9261 164.571 51.3272 168.658 51.3272 173.714ZM195.044 73.1424C195.044 68.0867 190.455 63.9999 184.778 63.9999H71.8575C66.1819 63.9999 61.5927 68.0867 61.5927 73.1424V118.857H195.044V73.1424ZM195.044 164.571H184.778C179.101 164.571 174.512 168.658 174.512 173.714C174.512 178.761 179.101 182.856 184.778 182.856H195.044C200.71 182.856 205.308 178.761 205.308 173.714C205.308 168.658 200.71 164.571 195.044 164.571ZM205.308 36.5714H51.3272C39.9942 36.5714 30.7963 44.7634 30.7963 54.857V9.14288C30.7963 4.08684 35.385 0 41.0618 0H215.574C221.241 0 225.84 4.08684 225.84 9.14288V54.857C225.84 44.7634 216.652 36.5714 205.308 36.5714ZM225.84 209.718C225.84 214.766 221.241 218.861 215.574 218.861H41.0618C35.385 218.861 30.7963 214.766 30.7963 209.718C30.7963 204.662 30.7963 200.575 30.7963 200.575H225.84C225.84 200.575 225.84 204.662 225.84 209.718ZM82.1232 246.857C82.1232 251.903 77.5247 256 71.8575 256H61.5927C55.916 256 51.3272 251.903 51.3272 246.857V228.571H82.1232V246.857ZM205.308 246.857C205.308 251.903 200.71 256 195.044 256H184.778C179.101 256 174.512 251.903 174.512 246.857V228.571H205.308V246.857Z" fill="#005BFF"></path>
</g>
<defs>
<clipPath id="SvgjsClipPath1011">
<rect width="256" height="256" fill="white"></rect>
</clipPath>
</defs>
</svg><style>@media (prefers-color-scheme: light) { :root { filter: none; } }
@media (prefers-color-scheme: dark) { :root { filter: none; } }
</style></svg>