<svg xmlns="http://www.w3.org/2000/svg" version="1.1" xmlns:xlink="http://www.w3.org/1999/xlink" xmlns:svgjs="http://svgjs.dev/svgjs" width="1000" height="1000"><svg width="1000" height="1000" viewBox="0 0 1000 1000" fill="none" xmlns="http://www.w3.org/2000/svg">
<path d="M959.899 392.859C937.724 392.859 919.799 392.859 919.799 392.859H840.443L839.923 437.715C863.899 449.894 879.698 473.035 879.698 500L881.384 747.786H120.298V500C120.298 473.643 136.498 450.855 160.398 438.464V392.859H80.1991C80.1991 392.859 62.2341 392.859 40.0996 392.859C17.9244 392.859 0 376.855 0 357.143V321.428C0 301.677 17.9244 285.713 40.0996 285.713C62.2341 285.713 80.1991 285.713 80.1991 285.713V357.143H160.398V250C160.398 210.571 196.327 178.571 240.596 178.571H761.89C806.16 178.571 842.086 210.571 842.086 250L840.844 357.143H919.799V285.713C919.799 285.713 937.724 285.713 959.899 285.713C982.032 285.713 1000 301.677 1000 321.428V357.143C1000 376.855 982.032 392.859 959.899 392.859ZM360.894 714.282H641.588V678.572H360.894V714.282ZM360.894 642.856H641.588V607.141H360.894V642.856ZM360.894 571.426H641.588V535.715H360.894V571.426ZM200.497 678.572C200.497 698.284 218.422 714.282 240.596 714.282H280.693C302.831 714.282 320.794 698.284 320.794 678.572C320.794 658.821 302.831 642.856 280.693 642.856H240.596C218.461 642.856 200.497 658.821 200.497 678.572ZM761.89 285.713C761.89 265.964 743.965 250 721.789 250H280.693C258.523 250 240.596 265.964 240.596 285.713V464.284H761.89V285.713ZM761.89 642.856H721.789C699.614 642.856 681.689 658.821 681.689 678.572C681.689 698.284 699.614 714.282 721.789 714.282H761.89C784.022 714.282 801.985 698.284 801.985 678.572C801.985 658.821 784.022 642.856 761.89 642.856ZM801.985 142.857H200.497C156.227 142.857 120.298 174.857 120.298 214.285V35.7144C120.298 15.9642 138.223 0 160.398 0H842.086C864.224 0 882.187 15.9642 882.187 35.7144V214.285C882.187 174.857 846.299 142.857 801.985 142.857ZM882.187 819.212C882.187 838.928 864.224 854.927 842.086 854.927H160.398C138.223 854.927 120.298 838.928 120.298 819.212C120.298 799.461 120.298 783.496 120.298 783.496H882.187C882.187 783.496 882.187 799.461 882.187 819.212ZM320.794 964.285C320.794 983.997 302.831 1000 280.693 1000H240.596C218.422 1000 200.497 983.997 200.497 964.285V892.854H320.794V964.285ZM801.985 964.285C801.985 983.997 784.022 1000 761.89 1000H721.789C699.614 1000 681.689 983.997 681.689 964.285V892.854H801.985V964.285Z" fill="#03396C"></path>
</svg><style>@media (prefers-color-scheme: light) { :root { filter: none; } }
@media (prefers-color-scheme: dark) { :root { filter: none; } }
</style></svg>