<svg width="3277" height="985" viewBox="0 0 3277 985" fill="none" xmlns="http://www.w3.org/2000/svg">
<path d="M2056.68 259.915C2017.9 259.915 1989.69 230.533 1989.69 193.513C1989.69 157.668 2017.9 128.286 2056.68 128.286C2095.46 128.286 2124.26 157.668 2124.26 193.513C2124.26 230.533 2095.46 259.915 2056.68 259.915ZM2116.03 276.956V588.397H1997.33V276.956H2116.03Z" fill="#0076FF"/>
<path d="M1107.97 343.357V535.511C1087.4 550.789 1024.52 595.449 923.452 595.449C790.061 595.449 693.691 509.656 693.691 385.079C693.691 257.564 793.587 170.008 928.741 170.008C992.792 170.008 1052.14 189.987 1092.1 225.832L1034.51 307.512C999.844 287.533 965.761 277.543 929.329 277.543C858.814 277.543 820.618 318.677 820.618 385.667C820.618 456.769 862.927 493.202 929.329 493.202C966.937 493.202 989.266 482.037 998.669 476.161V439.728H916.401V343.357H1107.97Z" fill="#0076FF"/>
<path d="M890.437 732.105V759.081H832.556V915.438H802.175V759.081H744.818V732.105H890.437ZM1157.83 915.438L1112.52 852.319H1060.41V915.438H1030.02V732.105H1118.81C1157.31 732.105 1185.33 752.009 1185.33 791.295C1185.33 819.057 1170.14 840.01 1144.22 848.391L1194.76 915.438H1157.83ZM1060.41 759.081V825.343H1115.41C1141.86 825.343 1153.64 812.51 1153.64 791.819C1153.64 767.2 1138.98 759.081 1114.62 759.081H1060.41ZM1469.91 915.438L1453.41 878.772H1356.24L1339.74 915.438H1307L1393.17 731.319H1417L1502.91 915.438H1469.91ZM1368.02 852.581H1441.62L1408.88 779.248L1404.95 769.557L1401.29 779.248L1368.02 852.581ZM1796.95 732.105V915.438H1776.52L1663.64 783.176L1659.98 777.152V915.438H1629.59V732.105H1655.78L1762.9 858.081L1766.57 864.105V732.105H1796.95ZM1971.63 779.771C1971.63 821.414 2079.8 795.486 2079.8 862.272C2079.8 897.105 2050.73 918.581 2008.56 918.581C1976.61 918.581 1948.85 906.272 1933.4 894.748L1947.54 870.653C1965.35 881.915 1986.04 891.081 2008.56 891.081C2028.73 891.081 2047.85 884.01 2047.85 865.938C2047.85 823.51 1941.25 848.653 1940.73 782.914C1940.47 747.819 1970.32 728.962 2010.66 728.962C2036.06 728.962 2054.13 735.771 2070.63 744.938L2058.33 769.295C2041.04 760.39 2025.85 756.2 2008.83 756.2C1986.56 756.2 1971.63 764.057 1971.63 779.771ZM2297.58 732.105C2335.82 732.105 2362.54 754.89 2362.54 794.176C2362.54 830.581 2335.3 857.034 2293.92 857.034H2245.99V915.438H2215.61V732.105H2297.58ZM2293.39 830.843C2315.66 830.843 2330.58 818.272 2330.58 794.176C2330.58 770.343 2318.27 759.081 2295.23 759.081H2245.99V830.843H2293.39ZM2590.59 728.962C2647.94 728.962 2690.9 767.986 2690.9 823.772C2690.9 879.557 2647.94 918.581 2590.59 918.581C2533.23 918.581 2490.28 879.557 2490.28 823.772C2490.28 767.986 2533.23 728.962 2590.59 728.962ZM2590.59 890.557C2631.97 890.557 2658.94 863.581 2658.94 823.772C2658.94 783.962 2631.97 756.986 2590.59 756.986C2549.21 756.986 2521.97 783.962 2521.97 823.772C2521.97 863.581 2549.21 890.557 2590.59 890.557ZM2956.03 915.438L2910.72 852.319H2858.6V915.438H2828.22V732.105H2917.01C2955.51 732.105 2983.53 752.009 2983.53 791.295C2983.53 819.057 2968.34 840.01 2942.41 848.391L2992.96 915.438H2956.03ZM2858.6 759.081V825.343H2913.6C2940.05 825.343 2951.84 812.51 2951.84 791.819C2951.84 767.2 2937.17 759.081 2912.82 759.081H2858.6ZM3257.26 732.105V759.081H3199.37V915.438H3168.99V759.081H3111.64V732.105H3257.26Z" fill="#0047B0"/>
<path d="M2570.52 510.831C2536.44 553.14 2475.32 595.449 2386.01 595.449C2258.49 595.449 2154.48 507.893 2154.48 381.553C2154.48 258.739 2252.61 170.008 2383.07 170.008C2464.75 170.008 2528.21 204.09 2564.06 246.987L2481.79 323.966C2457.11 296.347 2423.03 279.306 2385.42 279.306C2324.89 279.306 2281.41 319.265 2281.41 381.553C2281.41 442.666 2324.3 483.8 2388.36 483.8C2424.2 483.8 2460.05 470.872 2495.89 435.615L2570.52 510.831Z" fill="#0076FF"/>
<path d="M2862.45 258.202C2927.44 258.202 2980.12 311.937 2980.12 378.225L3056.6 402.229L3133.08 378.225V330.215H3068.99C3063.63 306.099 3054.3 283.521 3041.76 263.217L3087.1 216.974L3020.53 149.077L2975.2 195.321C2955.3 182.527 2933.16 173.016 2909.52 167.545V102.171L2815.39 102.171V167.545C2791.75 173.017 2769.61 182.527 2749.71 195.322L2704.37 149.076L2637.81 216.971L2683.15 263.215C2670.6 283.519 2661.28 306.098 2655.92 330.213H2591.83V378.222L2668.31 402.227L2744.79 378.222C2744.79 311.937 2797.47 258.202 2862.45 258.202Z" fill="#0076FF"/>
<path d="M2815.39 653.44H2909.52V588C2933.16 582.521 2955.29 573.003 2975.2 560.195L3020.53 606.485L3087.09 538.521L3041.76 492.231C3054.3 471.907 3063.63 449.306 3068.99 425.166H3133.08V377.107L2980.12 377.107C2980.12 443.462 2927.44 497.252 2862.45 497.252C2797.47 497.252 2744.79 443.462 2744.79 377.107H2591.83V425.166H2655.91C2661.28 449.306 2670.6 471.907 2683.15 492.231L2637.81 538.521L2704.37 606.486L2749.71 560.196C2769.61 573.004 2791.75 582.523 2815.39 588.001V653.44H2815.39Z" fill="#0076FF"/>
<path fill-rule="evenodd" clip-rule="evenodd" d="M1492.79 329.04H1169.59V585.405H1512.18V481.982H1292.41V427.333H1492.79V329.04ZM1511.59 274.519H1169.59V174.066H1511.59V274.519Z" fill="#0076FF"/>
<path fill-rule="evenodd" clip-rule="evenodd" d="M1830.41 585.405L1755.78 474.343H1687.62V516.696H1563.04V371.638H1710.31V371.509H1764.01C1808.67 371.509 1822.19 349.179 1822.19 322.148C1822.19 292.179 1803.97 278.664 1766.36 278.664H1687.62V319.54H1563.04V174.066H1791.63C1897.99 174.066 1948.52 245.169 1948.52 318.622C1948.52 370.333 1925.02 423.807 1875.07 452.601L1970.85 585.405H1830.41Z" fill="#0076FF"/>
<path d="M601.858 487.566C587.954 487.566 576.715 487.566 576.715 487.566H526.959L526.632 519.145C541.667 527.718 551.573 544.01 551.573 562.993L552.629 737.431H75.4271V562.993C75.4271 544.438 85.5846 528.397 100.569 519.673V487.566H50.2847C50.2847 487.566 39.0209 487.566 25.1424 487.566C11.2386 487.566 0 476.302 0 462.424V437.281C0 423.377 11.2386 412.139 25.1424 412.139C39.0209 412.139 50.2847 412.139 50.2847 412.139V462.424H100.569V386.996C100.569 359.239 123.097 336.712 150.854 336.712H477.705C505.462 336.712 527.989 359.239 527.989 386.996L527.21 462.424H576.715V412.139C576.715 412.139 587.954 412.139 601.858 412.139C615.736 412.139 627 423.377 627 437.281V462.424C627 476.302 615.736 487.566 601.858 487.566ZM226.281 713.847H402.278V688.705H226.281V713.847ZM226.281 663.562H402.278V638.42H226.281V663.562ZM226.281 613.278H402.278V588.135H226.281V613.278ZM125.712 688.705C125.712 702.583 136.95 713.847 150.854 713.847H175.996C189.875 713.847 201.139 702.583 201.139 688.705C201.139 674.801 189.875 663.562 175.996 663.562H150.854C136.976 663.562 125.712 674.801 125.712 688.705ZM477.705 412.139C477.705 398.235 466.466 386.996 452.562 386.996H175.996C162.093 386.996 150.854 398.235 150.854 412.139V537.851H477.705V412.139ZM477.705 663.562H452.562C438.659 663.562 427.42 674.801 427.42 688.705C427.42 702.583 438.659 713.847 452.562 713.847H477.705C491.583 713.847 502.847 702.583 502.847 688.705C502.847 674.801 491.583 663.562 477.705 663.562ZM502.847 311.569H125.712C97.9546 311.569 75.4271 334.097 75.4271 361.854V236.142C75.4271 222.239 86.6657 211 100.569 211H527.989C541.868 211 553.132 222.239 553.132 236.142V361.854C553.132 334.097 530.629 311.569 502.847 311.569ZM553.132 787.715C553.132 801.594 541.868 812.858 527.989 812.858H100.569C86.6657 812.858 75.4271 801.594 75.4271 787.715C75.4271 773.812 75.4271 762.573 75.4271 762.573H553.132C553.132 762.573 553.132 773.812 553.132 787.715ZM201.139 889.844C201.139 903.722 189.875 914.986 175.996 914.986H150.854C136.95 914.986 125.712 903.722 125.712 889.844V839.559H201.139V889.844ZM502.847 889.844C502.847 903.722 491.583 914.986 477.705 914.986H452.562C438.659 914.986 427.42 903.722 427.42 889.844V839.559H502.847V889.844Z" fill="#0076FF"/>
</svg>
