<svg width="540" height="400" viewBox="0 0 540 400" fill="none" xmlns="http://www.w3.org/2000/svg">
<path d="M283.626 250.674C275.641 250.674 269.835 244.625 269.835 237.003C269.835 229.624 275.641 223.575 283.626 223.575C291.61 223.575 297.538 229.624 297.538 237.003C297.538 244.625 291.61 250.674 283.626 250.674ZM295.844 254.182V318.299H271.407V254.182H295.844Z" fill="#0047B0"/>
<path d="M88.3131 267.852V307.411C84.079 310.556 71.1347 319.751 50.3269 319.751C22.8655 319.751 3.0256 302.088 3.0256 276.441C3.0256 250.19 23.5914 232.164 51.4157 232.164C64.602 232.164 76.8205 236.278 85.0468 243.657L73.1912 260.473C66.0537 256.36 59.0371 254.303 51.5367 254.303C37.0196 254.303 29.1563 262.771 29.1563 276.562C29.1563 291.2 37.8665 298.701 51.5367 298.701C59.2791 298.701 63.8761 296.402 65.8117 295.193V287.692H48.8752V267.852H88.3131Z" fill="#0047B0"/>
<path d="M43.53 347.998V353.552H31.614V385.741H25.3594V353.552H13.5512V347.998H43.53ZM98.5795 385.741L89.2515 372.747H78.5217V385.741H72.2671V347.998H90.5456C98.4716 347.998 104.241 352.096 104.241 360.184C104.241 365.899 101.114 370.213 95.7757 371.938L106.182 385.741H98.5795ZM78.5217 353.552V367.193H89.8446C95.2904 367.193 97.7168 364.551 97.7168 360.292C97.7168 355.223 94.6973 353.552 89.6829 353.552H78.5217ZM162.826 385.741L159.429 378.193H139.425L136.028 385.741H129.288L147.028 347.836H151.934L169.62 385.741H162.826ZM141.851 372.801H157.003L150.263 357.703L149.454 355.708L148.699 357.703L141.851 372.801ZM230.155 347.998V385.741H225.95L202.711 358.512L201.956 357.272V385.741H195.701V347.998H201.093L223.146 373.933L223.901 375.173V347.998H230.155ZM266.117 357.811C266.117 366.384 288.386 361.046 288.386 374.796C288.386 381.967 282.401 386.388 273.72 386.388C267.142 386.388 261.426 383.854 258.245 381.482L261.157 376.521C264.823 378.84 269.083 380.727 273.72 380.727C277.872 380.727 281.808 379.271 281.808 375.551C281.808 366.816 259.863 371.992 259.755 358.458C259.701 351.233 265.848 347.351 274.151 347.351C279.381 347.351 283.102 348.753 286.499 350.64L283.965 355.655C280.406 353.821 277.279 352.959 273.774 352.959C269.191 352.959 266.117 354.576 266.117 357.811ZM333.221 347.998C341.093 347.998 346.593 352.689 346.593 360.777C346.593 368.272 340.985 373.717 332.466 373.717H322.599V385.741H316.344V347.998H333.221ZM332.358 368.325C336.941 368.325 340.015 365.737 340.015 360.777C340.015 355.87 337.481 353.552 332.736 353.552H322.599V368.325H332.358ZM393.542 347.351C405.35 347.351 414.193 355.385 414.193 366.87C414.193 378.354 405.35 386.388 393.542 386.388C381.734 386.388 372.891 378.354 372.891 366.87C372.891 355.385 381.734 347.351 393.542 347.351ZM393.542 380.619C402.061 380.619 407.615 375.065 407.615 366.87C407.615 358.674 402.061 353.12 393.542 353.12C385.023 353.12 379.415 358.674 379.415 366.87C379.415 375.065 385.023 380.619 393.542 380.619ZM468.776 385.741L459.448 372.747H448.718V385.741H442.464V347.998H460.742C468.668 347.998 474.438 352.096 474.438 360.184C474.438 365.899 471.31 370.213 465.972 371.938L476.379 385.741H468.776ZM448.718 353.552V367.193H460.041C465.487 367.193 467.914 364.551 467.914 360.292C467.914 355.223 464.894 353.552 459.88 353.552H448.718ZM530.79 347.998V353.552H518.874V385.741H512.619V353.552H500.811V347.998H530.79Z" fill="#011F4B"/>
<path d="M389.411 302.33C382.394 311.04 369.813 319.751 351.424 319.751C325.173 319.751 303.76 301.725 303.76 275.716C303.76 250.432 323.963 232.164 350.82 232.164C367.635 232.164 380.7 239.181 388.08 248.012L371.143 263.86C366.062 258.174 359.046 254.666 351.303 254.666C338.843 254.666 329.891 262.892 329.891 275.716C329.891 288.297 338.722 296.765 351.908 296.765C359.288 296.765 366.667 294.104 374.047 286.845L389.411 302.33Z" fill="#0047B0"/>
<path fill-rule="evenodd" clip-rule="evenodd" d="M10.5321 24.5107H10.5319V148.921C16.2884 151.29 21.2015 155.41 25.0636 159.961C31.0666 167.034 35.4169 175.365 39.3868 183.159C39.8374 184.044 40.2834 184.923 40.7245 185.792L40.7259 185.795C44.1693 192.582 47.3181 198.788 50.0942 202.801C53.2298 207.328 54.7895 207.864 55.2273 207.864L55.3023 207.865C55.9223 207.868 56.1898 207.869 57.932 205.575C59.7462 203.188 62.0233 198.702 64.4449 193.616C64.6341 193.218 64.8242 192.817 65.0158 192.413L65.0171 192.411L65.0171 192.41C67.2785 187.641 69.7489 182.432 73.4207 177.598C77.4043 172.352 83.9321 167.17 91.9005 167.17C99.8689 167.17 106.398 172.352 110.38 177.598C114.052 182.431 116.523 187.64 118.784 192.41L118.788 192.418C118.979 192.82 119.168 193.219 119.356 193.614C121.779 198.701 124.055 203.187 125.868 205.573C127.61 207.867 127.878 207.865 128.498 207.862L128.573 207.862L128.648 207.862C129.268 207.865 129.535 207.867 131.277 205.573C133.091 203.186 135.369 198.7 137.79 193.613C137.979 193.217 138.168 192.818 138.359 192.416L138.362 192.408C140.624 187.639 143.094 182.429 146.766 177.595C150.75 172.35 157.277 167.168 165.246 167.168C173.214 167.168 179.743 172.35 183.726 177.595C187.397 182.428 189.868 187.637 192.129 192.406L192.129 192.407L192.129 192.407L192.133 192.415L192.147 192.445C192.333 192.837 192.518 193.226 192.701 193.612C195.124 198.698 197.4 203.185 199.213 205.57C200.955 207.864 201.223 207.863 201.843 207.859L201.918 207.859L201.993 207.859C202.613 207.863 202.88 207.864 204.623 205.57C206.437 203.183 208.714 198.697 211.135 193.61C211.324 193.215 211.513 192.816 211.704 192.414L211.708 192.406C213.969 187.636 216.439 182.427 220.111 177.593C224.095 172.347 230.623 167.165 238.591 167.165C246.559 167.165 253.088 172.347 257.071 177.593C260.743 182.425 263.213 187.635 265.475 192.405C265.578 192.622 265.681 192.839 265.783 193.055C265.871 193.241 265.959 193.425 266.047 193.609C268.469 198.696 270.745 203.182 272.558 205.568C274.301 207.862 274.568 207.86 275.188 207.857L275.263 207.857L275.338 207.857C275.958 207.86 276.226 207.862 277.968 205.568C279.782 203.181 282.059 198.694 284.481 193.608C284.666 193.219 284.852 192.827 285.039 192.432L285.053 192.403C287.314 187.634 289.785 182.424 293.456 177.59C297.44 172.345 303.968 167.163 311.936 167.163C319.905 167.163 326.202 171.359 331.448 176.069C333.902 178.273 336.175 180.696 338.295 183.212V59.4306H10.5321V24.5107ZM404.861 227.498H377.264V49.3875L489.282 67.1435L521.665 121.042V167.172H503.328V227.498H494.064C482.373 215.335 466.676 207.864 449.464 207.864C432.252 207.864 416.553 215.334 404.861 227.498ZM540.001 227.498H523.957V190.061H540.001V227.498ZM472.744 84.0298L398.515 74.205V150.467H501.165V129.186L472.744 84.0298ZM10.5319 207.864V176.261C14.0926 180.652 17.7909 187.278 21.4272 194.42C22.0525 195.648 22.6761 196.888 23.3026 198.133L23.303 198.134C24.9328 201.375 26.583 204.656 28.3378 207.864H10.5319ZM91.8256 190.061L91.9005 190.061V190.062L91.9755 190.062C92.5955 190.059 92.863 190.057 94.6052 192.351C96.4182 194.737 98.6942 199.223 101.117 204.31C101.281 204.655 101.447 205.003 101.613 205.354C102.005 206.179 102.404 207.019 102.81 207.864H80.9891C81.4443 206.918 81.8896 205.98 82.3261 205.061L82.3266 205.06L82.3283 205.057L82.683 204.31C85.1045 199.223 87.3817 194.737 89.1959 192.35C90.9381 190.056 91.2056 190.058 91.8256 190.061ZM165.172 190.061L165.247 190.061V190.062L165.322 190.062C165.942 190.059 166.209 190.057 167.952 192.351C169.765 194.737 172.041 199.223 174.463 204.31L174.641 204.683L174.96 205.356C175.352 206.18 175.75 207.019 176.156 207.864H154.336C154.787 206.927 155.228 205.998 155.66 205.087L155.67 205.067L155.674 205.059L156.029 204.31C158.451 199.223 160.728 194.737 162.542 192.35C164.285 190.056 164.552 190.058 165.172 190.061ZM238.518 190.061L238.593 190.061V190.062L238.668 190.062C239.288 190.059 239.556 190.057 241.298 192.351C243.111 194.737 245.387 199.223 247.81 204.31C247.972 204.65 248.135 204.994 248.299 205.34L248.306 205.354C248.698 206.179 249.096 207.019 249.503 207.864H227.682C228.136 206.921 228.579 205.987 229.015 205.07L229.02 205.059L229.376 204.31C231.797 199.223 234.075 194.737 235.889 192.35C237.631 190.056 237.898 190.058 238.518 190.061ZM311.865 190.061L311.94 190.061C312.616 190.061 315.224 190.951 318.474 193.87C321.726 196.791 325.37 201.276 328.564 205.912C328.874 206.364 329.169 206.815 329.465 207.265L329.468 207.27C329.598 207.468 329.728 207.666 329.859 207.864H301.028C301.478 206.931 301.917 206.005 302.348 205.098L302.353 205.087L302.368 205.056L302.722 204.31C305.144 199.223 307.421 194.737 309.235 192.35C310.977 190.056 311.245 190.058 311.865 190.061Z" fill="#DFE3EE"/>
<path d="M449.511 250.374C462.89 250.374 473.735 261.436 473.735 275.083L489.48 280.025L505.225 275.083V265.199H492.031C490.927 260.234 489.008 255.586 486.425 251.406L495.759 241.886L482.056 227.908L472.723 237.428C468.625 234.795 464.068 232.837 459.201 231.71V218.251L439.822 218.251V231.71C434.955 232.837 430.398 234.795 426.3 237.429L416.967 227.908L403.264 241.886L412.597 251.406C410.015 255.586 408.096 260.234 406.991 265.199H393.797V275.083L409.542 280.024L425.288 275.083C425.288 261.436 436.133 250.374 449.511 250.374Z" fill="#0047B0"/>
<path d="M439.822 331.742H459.2V318.269C464.068 317.141 468.624 315.182 472.722 312.545L482.055 322.075L495.758 308.083L486.425 298.553C489.007 294.369 490.927 289.716 492.031 284.746H505.225V274.853H473.735C473.735 288.513 462.89 299.587 449.511 299.587C436.133 299.587 425.288 288.513 425.288 274.853H393.797V284.746H406.991C408.096 289.716 410.015 294.369 412.597 298.553L403.264 308.083L416.967 322.075L426.3 312.545C430.398 315.182 434.955 317.142 439.822 318.27V331.742H439.822Z" fill="#0047B0"/>
<path fill-rule="evenodd" clip-rule="evenodd" d="M10.532 24.4831C10.532 10.9615 21.4934 0 35.0151 0H313.816C327.337 0 338.299 10.9614 338.299 24.4831V118.479H10.532V71.586H103.05V85.0362L144.715 59.1147L103.05 33.1932V46.8925H10.532V24.4831Z" fill="#0047B0"/>
<path fill-rule="evenodd" clip-rule="evenodd" d="M167.536 264.956H101V317.683H171.529V296.391H126.284V285.14H167.536V264.956ZM171.408 253.732H101V233H171.408V253.732Z" fill="#0047B0"/>
<path fill-rule="evenodd" clip-rule="evenodd" d="M236.609 318L221.245 295.136H207.212V303.907H181.565V273.727H207.212V273.965H222.939C232.133 273.965 234.915 269.368 234.915 263.803C234.915 257.633 231.165 254.851 223.422 254.851H207.212V263.001H181.565V233.317H228.624C250.521 233.317 260.925 247.955 260.925 263.077C260.925 273.723 256.086 284.732 245.803 290.66L265.522 318H236.609Z" fill="#0047B0"/>
</svg>
